<?xml version="1.0" encoding="UTF-8" standalone="no"?>
<!DOCTYPE svg PUBLIC "-//W3C//DTD SVG 1.1//EN" "http://www.w3.org/Graphics/SVG/1.1/DTD/svg11.dtd">
<!-- Generated by graphviz version 2.40.1 (20161225.0304)
 -->
<!-- Title: ImageRegistrationGuideline Pages: 1 -->
<svg width="924pt" height="1095pt" viewBox="0.00 0.00 923.74 1094.51" xmlns="http://www.w3.org/2000/svg" xmlns:xlink="http://www.w3.org/1999/xlink">
<g id="graph0" class="graph" transform="scale(1 1) rotate(0) translate(4 1090.5097)">
<title>ImageRegistrationGuideline</title>
<polygon fill="#ffffff" stroke="transparent" points="-4,4 -4,-1090.5097 919.7393,-1090.5097 919.7393,4 -4,4"/>
<!-- start -->
<g id="node1" class="node">
<title>start</title>
<ellipse fill="#000000" stroke="#000000" cx="217.737" cy="-1068.5097" rx="27" ry="18"/>
<text text-anchor="middle" x="217.737" y="-1065.5097" font-family="Helvetica,sans-Serif" font-size="10.00" fill="#000000">Start</text>
</g>
<!-- preprocessing_check -->
<g id="node2" class="node">
<title>preprocessing_check</title>
<polygon fill="#add8e6" stroke="#000000" points="217.737,-1013.5097 106.3589,-995.5097 217.737,-977.5097 329.1151,-995.5097 217.737,-1013.5097"/>
<text text-anchor="middle" x="217.737" y="-992.5097" font-family="Helvetica,sans-Serif" font-size="10.00" fill="#000000">Is preprocessing needed?</text>
</g>
<!-- start&#45;&gt;preprocessing_check -->
<g id="edge1" class="edge">
<title>start-&gt;preprocessing_check</title>
<path fill="none" stroke="#000000" d="M217.737,-1050.4647C217.737,-1042.3925 217.737,-1032.686 217.737,-1023.6914"/>
<polygon fill="#000000" stroke="#000000" points="221.2371,-1023.6 217.737,-1013.6 214.2371,-1023.6001 221.2371,-1023.6"/>
</g>
<!-- preprocessing_steps -->
<g id="node3" class="node">
<title>preprocessing_steps</title>
<path fill="none" stroke="#000000" d="M234.4332,-924.7097C234.4332,-924.7097 71.0408,-924.7097 71.0408,-924.7097 65.0408,-924.7097 59.0408,-918.7097 59.0408,-912.7097 59.0408,-912.7097 59.0408,-900.7097 59.0408,-900.7097 59.0408,-894.7097 65.0408,-888.7097 71.0408,-888.7097 71.0408,-888.7097 234.4332,-888.7097 234.4332,-888.7097 240.4332,-888.7097 246.4332,-894.7097 246.4332,-900.7097 246.4332,-900.7097 246.4332,-912.7097 246.4332,-912.7097 246.4332,-918.7097 240.4332,-924.7097 234.4332,-924.7097"/>
<text text-anchor="middle" x="152.737" y="-903.7097" font-family="Helvetica,sans-Serif" font-size="10.00" fill="#000000">Correct Intensity, Resize, or Segment..</text>
</g>
<!-- preprocessing_check&#45;&gt;preprocessing_steps -->
<g id="edge2" class="edge">
<title>preprocessing_check-&gt;preprocessing_steps</title>
<path fill="none" stroke="#000000" d="M205.815,-979.2224C196.3787,-966.3309 183.0106,-948.0681 172.0514,-933.096"/>
<polygon fill="#000000" stroke="#000000" points="174.6558,-930.7284 165.925,-924.7265 169.0073,-934.863 174.6558,-930.7284"/>
<text text-anchor="middle" x="202.6199" y="-946.9097" font-family="Times,serif" font-size="14.00" fill="#000000">Yes</text>
</g>
<!-- deep_learning_check -->
<g id="node4" class="node">
<title>deep_learning_check</title>
<polygon fill="#add8e6" stroke="#000000" points="217.737,-851.7097 -.2373,-807.7097 217.737,-763.7097 435.7113,-807.7097 217.737,-851.7097"/>
<text text-anchor="middle" x="217.737" y="-816.7097" font-family="Helvetica,sans-Serif" font-size="10.00" fill="#000000">Do you have the necessary expertise,</text>
<text text-anchor="middle" x="217.737" y="-804.7097" font-family="Helvetica,sans-Serif" font-size="10.00" fill="#000000">computational resources,</text>
<text text-anchor="middle" x="217.737" y="-792.7097" font-family="Helvetica,sans-Serif" font-size="10.00" fill="#000000">and perhaps training data for Deep Learning?</text>
</g>
<!-- preprocessing_check&#45;&gt;deep_learning_check -->
<g id="edge3" class="edge">
<title>preprocessing_check-&gt;deep_learning_check</title>
<path fill="none" stroke="#000000" d="M229.4471,-979.3082C238.6277,-965.5452 250.6691,-944.8682 255.737,-924.7097 261.4718,-901.8984 255.2393,-877.0602 246.275,-856.1609"/>
<polygon fill="#000000" stroke="#000000" points="249.3547,-854.4806 241.9972,-846.8571 242.9948,-857.4049 249.3547,-854.4806"/>
<text text-anchor="middle" x="267.2903" y="-902.5097" font-family="Times,serif" font-size="14.00" fill="#000000">No</text>
</g>
<!-- preprocessing_steps&#45;&gt;deep_learning_check -->
<g id="edge4" class="edge">
<title>preprocessing_steps-&gt;deep_learning_check</title>
<path fill="none" stroke="#000000" d="M164.659,-888.5515C170.8523,-879.1186 178.7393,-867.1061 186.5274,-855.2443"/>
<polygon fill="#000000" stroke="#000000" points="189.5925,-856.953 192.1552,-846.6728 183.741,-853.1111 189.5925,-856.953"/>
</g>
<!-- deep_learning_registration -->
<g id="node5" class="node">
<title>deep_learning_registration</title>
<ellipse fill="#d3d3d3" stroke="#000000" cx="195.737" cy="-678.9097" rx="139.3193" ry="22.7556"/>
<text text-anchor="middle" x="195.737" y="-681.9097" font-family="Helvetica,sans-Serif" font-size="10.00" fill="#000000">Apply Deep Learning-Based Registration</text>
<text text-anchor="middle" x="195.737" y="-669.9097" font-family="Helvetica,sans-Serif" font-size="10.00" fill="#000000">(e.g., VoxelMorph, DeepReg)</text>
</g>
<!-- deep_learning_check&#45;&gt;deep_learning_registration -->
<g id="edge5" class="edge">
<title>deep_learning_check-&gt;deep_learning_registration</title>
<path fill="none" stroke="#000000" d="M210.4113,-764.8211C207.4583,-747.5324 204.1061,-727.9069 201.3519,-711.7821"/>
<polygon fill="#000000" stroke="#000000" points="204.7723,-711.019 199.6385,-701.7511 197.8722,-712.1976 204.7723,-711.019"/>
<text text-anchor="middle" x="217.6199" y="-733.1097" font-family="Times,serif" font-size="14.00" fill="#000000">Yes</text>
</g>
<!-- similarity_check -->
<g id="node6" class="node">
<title>similarity_check</title>
<polygon fill="#add8e6" stroke="#000000" points="495.737,-710.9097 353.5049,-678.9097 495.737,-646.9097 637.9691,-678.9097 495.737,-710.9097"/>
<text text-anchor="middle" x="495.737" y="-681.9097" font-family="Helvetica,sans-Serif" font-size="10.00" fill="#000000">Are the images very similar?</text>
<text text-anchor="middle" x="495.737" y="-669.9097" font-family="Helvetica,sans-Serif" font-size="10.00" fill="#000000">(Minimal transformation)</text>
</g>
<!-- deep_learning_check&#45;&gt;similarity_check -->
<g id="edge6" class="edge">
<title>deep_learning_check-&gt;similarity_check</title>
<path fill="none" stroke="#000000" d="M283.9717,-777.0225C331.5009,-755.0018 394.8376,-725.6573 439.8273,-704.8131"/>
<polygon fill="#000000" stroke="#000000" points="441.5348,-707.8795 449.1369,-700.4999 438.5921,-701.5281 441.5348,-707.8795"/>
<text text-anchor="middle" x="389.2903" y="-733.1097" font-family="Times,serif" font-size="14.00" fill="#000000">No</text>
</g>
<!-- intensity_based -->
<g id="node7" class="node">
<title>intensity_based</title>
<path fill="none" stroke="#000000" d="M339.3205,-540.1097C339.3205,-540.1097 202.1535,-540.1097 202.1535,-540.1097 196.1535,-540.1097 190.1535,-534.1097 190.1535,-528.1097 190.1535,-528.1097 190.1535,-516.1097 190.1535,-516.1097 190.1535,-510.1097 196.1535,-504.1097 202.1535,-504.1097 202.1535,-504.1097 339.3205,-504.1097 339.3205,-504.1097 345.3205,-504.1097 351.3205,-510.1097 351.3205,-516.1097 351.3205,-516.1097 351.3205,-528.1097 351.3205,-528.1097 351.3205,-534.1097 345.3205,-540.1097 339.3205,-540.1097"/>
<text text-anchor="middle" x="270.737" y="-525.1097" font-family="Helvetica,sans-Serif" font-size="10.00" fill="#000000">Use Intensity-Based Registration</text>
<text text-anchor="middle" x="270.737" y="-513.1097" font-family="Helvetica,sans-Serif" font-size="10.00" fill="#000000">(e.g., Cross-Correlation)</text>
</g>
<!-- similarity_check&#45;&gt;intensity_based -->
<g id="edge7" class="edge">
<title>similarity_check-&gt;intensity_based</title>
<path fill="none" stroke="#000000" d="M454.0815,-656.0376C439.8521,-647.8553 423.9964,-638.322 409.9712,-628.9097 370.999,-602.7552 328.5076,-569.4007 300.8474,-546.9846"/>
<polygon fill="#000000" stroke="#000000" points="302.7241,-543.9992 292.7597,-540.3992 298.3042,-549.4274 302.7241,-543.9992"/>
<text text-anchor="middle" x="420.6199" y="-616.3097" font-family="Times,serif" font-size="14.00" fill="#000000">Yes</text>
</g>
<!-- mutual_information -->
<g id="node8" class="node">
<title>mutual_information</title>
<path fill="none" stroke="#000000" d="M514.639,-540.1097C514.639,-540.1097 368.835,-540.1097 368.835,-540.1097 362.835,-540.1097 356.835,-534.1097 356.835,-528.1097 356.835,-528.1097 356.835,-516.1097 356.835,-516.1097 356.835,-510.1097 362.835,-504.1097 368.835,-504.1097 368.835,-504.1097 514.639,-504.1097 514.639,-504.1097 520.639,-504.1097 526.639,-510.1097 526.639,-516.1097 526.639,-516.1097 526.639,-528.1097 526.639,-528.1097 526.639,-534.1097 520.639,-540.1097 514.639,-540.1097"/>
<text text-anchor="middle" x="441.737" y="-525.1097" font-family="Helvetica,sans-Serif" font-size="10.00" fill="#000000">Use Histogram-Based Registration</text>
<text text-anchor="middle" x="441.737" y="-513.1097" font-family="Helvetica,sans-Serif" font-size="10.00" fill="#000000">(e.g., Mutual Information)</text>
</g>
<!-- similarity_check&#45;&gt;mutual_information -->
<g id="edge8" class="edge">
<title>similarity_check-&gt;mutual_information</title>
<path fill="none" stroke="#000000" d="M460.4901,-654.6518C452.6462,-647.3676 445.3888,-638.6777 441.0862,-628.9097 430.117,-604.0066 431.9384,-572.5571 435.4903,-550.2512"/>
<polygon fill="#000000" stroke="#000000" points="438.9358,-550.8657 437.2641,-540.4036 432.0467,-549.6247 438.9358,-550.8657"/>
<text text-anchor="middle" x="481.5624" y="-616.3097" font-family="Times,serif" font-size="14.00" fill="#000000">Yes/Somehow</text>
</g>
<!-- feature_based -->
<g id="node9" class="node">
<title>feature_based</title>
<path fill="none" stroke="#000000" d="M609.5451,-594.1097C609.5451,-594.1097 489.9289,-594.1097 489.9289,-594.1097 483.9289,-594.1097 477.9289,-588.1097 477.9289,-582.1097 477.9289,-582.1097 477.9289,-570.1097 477.9289,-570.1097 477.9289,-564.1097 483.9289,-558.1097 489.9289,-558.1097 489.9289,-558.1097 609.5451,-558.1097 609.5451,-558.1097 615.5451,-558.1097 621.5451,-564.1097 621.5451,-570.1097 621.5451,-570.1097 621.5451,-582.1097 621.5451,-582.1097 621.5451,-588.1097 615.5451,-594.1097 609.5451,-594.1097"/>
<text text-anchor="middle" x="549.737" y="-573.1097" font-family="Helvetica,sans-Serif" font-size="10.00" fill="#000000">Use Feature-Based Methods</text>
</g>
<!-- similarity_check&#45;&gt;feature_based -->
<g id="edge9" class="edge">
<title>similarity_check-&gt;feature_based</title>
<path fill="none" stroke="#000000" d="M514.167,-650.7675C518.4926,-643.7427 522.9428,-636.1462 526.737,-628.9097 530.9417,-620.8901 535.0499,-611.9369 538.6036,-603.7141"/>
<polygon fill="#000000" stroke="#000000" points="541.83,-605.0707 542.4932,-594.4966 535.3807,-602.3491 541.83,-605.0707"/>
<text text-anchor="middle" x="585.061" y="-616.3097" font-family="Times,serif" font-size="14.00" fill="#000000">Yes/Somehow/No</text>
</g>
<!-- retake_images -->
<g id="node10" class="node">
<title>retake_images</title>
<ellipse fill="#d3d3d3" stroke="#000000" cx="776.737" cy="-409.4823" rx="139.0047" ry="22.7556"/>
<text text-anchor="middle" x="776.737" y="-412.4823" font-family="Helvetica,sans-Serif" font-size="10.00" fill="#000000">Retake Images with Extrinsic Landmarks</text>
<text text-anchor="middle" x="776.737" y="-400.4823" font-family="Helvetica,sans-Serif" font-size="10.00" fill="#000000">or Improved Features</text>
</g>
<!-- similarity_check&#45;&gt;retake_images -->
<g id="edge10" class="edge">
<title>similarity_check-&gt;retake_images</title>
<path fill="none" stroke="#000000" d="M564.2775,-662.2446C589.4561,-654.3671 617.4726,-643.4359 640.737,-628.9097 711.7882,-584.5454 733.8384,-564.3563 763.737,-486.1097 769.0334,-472.2485 772.1784,-456.1561 774.0429,-442.3072"/>
<polygon fill="#000000" stroke="#000000" points="777.5362,-442.5698 775.2336,-432.2282 770.5845,-441.7485 777.5362,-442.5698"/>
<text text-anchor="middle" x="752.7861" y="-571.9097" font-family="Times,serif" font-size="14.00" fill="#000000">Not at all</text>
</g>
<!-- transformation_type -->
<g id="node11" class="node">
<title>transformation_type</title>
<polygon fill="#add8e6" stroke="#000000" points="465.737,-368.8548 347.6655,-350.8548 465.737,-332.8548 583.8085,-350.8548 465.737,-368.8548"/>
<text text-anchor="middle" x="465.737" y="-347.8548" font-family="Helvetica,sans-Serif" font-size="10.00" fill="#000000">Select Transformation Type</text>
</g>
<!-- intensity_based&#45;&gt;transformation_type -->
<g id="edge11" class="edge">
<title>intensity_based-&gt;transformation_type</title>
<path fill="none" stroke="#000000" d="M281.5337,-503.9972C299.256,-475.6102 337.0468,-420.4237 381.737,-386.8548 392.4527,-378.8058 405.2421,-372.1491 417.5702,-366.8421"/>
<polygon fill="#000000" stroke="#000000" points="418.9309,-370.0671 426.8656,-363.0463 416.2846,-363.5866 418.9309,-370.0671"/>
</g>
<!-- mutual_information&#45;&gt;transformation_type -->
<g id="edge12" class="edge">
<title>mutual_information-&gt;transformation_type</title>
<path fill="none" stroke="#000000" d="M395.3248,-504.0565C388.2961,-499.2834 381.9847,-493.3726 377.737,-486.1097 369.6595,-472.2983 372.0605,-465.0688 377.737,-450.1097 389.691,-418.6078 416.7248,-390.6938 437.6971,-372.5562"/>
<polygon fill="#000000" stroke="#000000" points="439.9843,-375.206 445.3941,-366.0963 435.4842,-369.8441 439.9843,-375.206"/>
</g>
<!-- classic_feature_based -->
<g id="node16" class="node">
<title>classic_feature_based</title>
<path fill="none" stroke="#000000" d="M532.9832,-486.1097C532.9832,-486.1097 398.4908,-486.1097 398.4908,-486.1097 392.4908,-486.1097 386.4908,-480.1097 386.4908,-474.1097 386.4908,-474.1097 386.4908,-462.1097 386.4908,-462.1097 386.4908,-456.1097 392.4908,-450.1097 398.4908,-450.1097 398.4908,-450.1097 532.9832,-450.1097 532.9832,-450.1097 538.9832,-450.1097 544.9832,-456.1097 544.9832,-462.1097 544.9832,-462.1097 544.9832,-474.1097 544.9832,-474.1097 544.9832,-480.1097 538.9832,-486.1097 532.9832,-486.1097"/>
<text text-anchor="middle" x="465.737" y="-471.1097" font-family="Helvetica,sans-Serif" font-size="10.00" fill="#000000">Classic Feature-Based Methods</text>
<text text-anchor="middle" x="465.737" y="-459.1097" font-family="Helvetica,sans-Serif" font-size="10.00" fill="#000000">(e.g., SIFT, ORB, SURF)</text>
</g>
<!-- feature_based&#45;&gt;classic_feature_based -->
<g id="edge13" class="edge">
<title>feature_based-&gt;classic_feature_based</title>
<path fill="none" stroke="#000000" d="M547.9078,-557.8222C545.5249,-542.1386 540.0842,-519.6741 527.737,-504.1097 524.256,-499.7216 520.0831,-495.7639 515.569,-492.2208"/>
<polygon fill="#000000" stroke="#000000" points="517.3412,-489.1879 507.151,-486.2876 513.3084,-494.9095 517.3412,-489.1879"/>
<text text-anchor="middle" x="586.6883" y="-517.9097" font-family="Times,serif" font-size="14.00" fill="#000000">Image Features</text>
</g>
<!-- pose_estimation_based -->
<g id="node17" class="node">
<title>pose_estimation_based</title>
<path fill="none" stroke="#000000" d="M742.3324,-486.1097C742.3324,-486.1097 575.1416,-486.1097 575.1416,-486.1097 569.1416,-486.1097 563.1416,-480.1097 563.1416,-474.1097 563.1416,-474.1097 563.1416,-462.1097 563.1416,-462.1097 563.1416,-456.1097 569.1416,-450.1097 575.1416,-450.1097 575.1416,-450.1097 742.3324,-450.1097 742.3324,-450.1097 748.3324,-450.1097 754.3324,-456.1097 754.3324,-462.1097 754.3324,-462.1097 754.3324,-474.1097 754.3324,-474.1097 754.3324,-480.1097 748.3324,-486.1097 742.3324,-486.1097"/>
<text text-anchor="middle" x="658.737" y="-471.1097" font-family="Helvetica,sans-Serif" font-size="10.00" fill="#000000">Model-Based Feature Detection</text>
<text text-anchor="middle" x="658.737" y="-459.1097" font-family="Helvetica,sans-Serif" font-size="10.00" fill="#000000">(e.g., Pose Estimation via DeepLabCut)</text>
</g>
<!-- feature_based&#45;&gt;pose_estimation_based -->
<g id="edge15" class="edge">
<title>feature_based-&gt;pose_estimation_based</title>
<path fill="none" stroke="#000000" d="M609.3608,-558.0475C618.3758,-553.3171 626.9232,-547.4231 633.737,-540.1097 644.9147,-528.1124 651.129,-510.8589 654.5658,-496.2491"/>
<polygon fill="#000000" stroke="#000000" points="658.0481,-496.6878 656.6088,-486.1912 651.1882,-495.2943 658.0481,-496.6878"/>
<text text-anchor="middle" x="688.8671" y="-517.9097" font-family="Times,serif" font-size="14.00" fill="#000000">Model Based</text>
</g>
<!-- final_step -->
<g id="node15" class="node">
<title>final_step</title>
<ellipse fill="#d3d3d3" stroke="#000000" cx="697.737" cy="-22.6274" rx="164.8894" ry="22.7556"/>
<text text-anchor="middle" x="697.737" y="-25.6274" font-family="Helvetica,sans-Serif" font-size="10.00" fill="#000000">Apply Same Transformation to Additional Images</text>
<text text-anchor="middle" x="697.737" y="-13.6274" font-family="Helvetica,sans-Serif" font-size="10.00" fill="#000000">from Source Space</text>
</g>
<!-- retake_images&#45;&gt;final_step -->
<!-- rigid_transformation -->
<g id="node13" class="node">
<title>rigid_transformation</title>
<path fill="none" stroke="#000000" d="M691.289,-280.0548C691.289,-280.0548 414.185,-280.0548 414.185,-280.0548 408.185,-280.0548 402.185,-274.0548 402.185,-268.0548 402.185,-268.0548 402.185,-256.0548 402.185,-256.0548 402.185,-250.0548 408.185,-244.0548 414.185,-244.0548 414.185,-244.0548 691.289,-244.0548 691.289,-244.0548 697.289,-244.0548 703.289,-250.0548 703.289,-256.0548 703.289,-256.0548 703.289,-268.0548 703.289,-268.0548 703.289,-274.0548 697.289,-280.0548 691.289,-280.0548"/>
<text text-anchor="middle" x="552.737" y="-259.0548" font-family="Helvetica,sans-Serif" font-size="10.00" fill="#000000">Calculate and Apply Rigid, Affine, or Perspective Transformation</text>
</g>
<!-- transformation_type&#45;&gt;rigid_transformation -->
<g id="edge17" class="edge">
<title>transformation_type-&gt;rigid_transformation</title>
<path fill="none" stroke="#000000" d="M481.2909,-334.9792C494.2276,-321.7748 512.883,-302.7334 527.8869,-287.4191"/>
<polygon fill="#000000" stroke="#000000" points="530.4198,-289.835 534.918,-280.2425 525.4196,-284.9362 530.4198,-289.835"/>
<text text-anchor="middle" x="576.0249" y="-302.2548" font-family="Times,serif" font-size="14.00" fill="#000000">Global Deformations</text>
</g>
<!-- local_deformations -->
<g id="node12" class="node">
<title>local_deformations</title>
<polygon fill="#add8e6" stroke="#000000" points="552.737,-207.0548 418.9634,-189.0548 552.737,-171.0548 686.5106,-189.0548 552.737,-207.0548"/>
<text text-anchor="middle" x="552.737" y="-186.0548" font-family="Helvetica,sans-Serif" font-size="10.00" fill="#000000">Are local deformations present?</text>
</g>
<!-- elastic_transformation -->
<g id="node14" class="node">
<title>elastic_transformation</title>
<path fill="none" stroke="#000000" d="M627.38,-118.2548C627.38,-118.2548 444.094,-118.2548 444.094,-118.2548 438.094,-118.2548 432.094,-112.2548 432.094,-106.2548 432.094,-106.2548 432.094,-94.2548 432.094,-94.2548 432.094,-88.2548 438.094,-82.2548 444.094,-82.2548 444.094,-82.2548 627.38,-82.2548 627.38,-82.2548 633.38,-82.2548 639.38,-88.2548 639.38,-94.2548 639.38,-94.2548 639.38,-106.2548 639.38,-106.2548 639.38,-112.2548 633.38,-118.2548 627.38,-118.2548"/>
<text text-anchor="middle" x="535.737" y="-103.2548" font-family="Helvetica,sans-Serif" font-size="10.00" fill="#000000">Calculate and Apply Elastic Transformation</text>
<text text-anchor="middle" x="535.737" y="-91.2548" font-family="Helvetica,sans-Serif" font-size="10.00" fill="#000000">(e.g., B-Splines, Thin-Plate Splines)</text>
</g>
<!-- local_deformations&#45;&gt;elastic_transformation -->
<g id="edge19" class="edge">
<title>local_deformations-&gt;elastic_transformation</title>
<path fill="none" stroke="#000000" d="M549.2968,-171.0848C546.9619,-158.8886 543.8262,-142.5092 541.1584,-128.5735"/>
<polygon fill="#000000" stroke="#000000" points="544.5484,-127.6664 539.2304,-118.5029 537.6732,-128.9827 544.5484,-127.6664"/>
<text text-anchor="middle" x="556.6199" y="-140.4548" font-family="Times,serif" font-size="14.00" fill="#000000">Yes</text>
</g>
<!-- local_deformations&#45;&gt;final_step -->
<g id="edge20" class="edge">
<title>local_deformations-&gt;final_step</title>
<path fill="none" stroke="#000000" d="M578.9807,-174.3538C599.9038,-161.6233 628.8884,-141.609 648.737,-118.2548 664.7558,-99.4069 677.3262,-74.4287 685.723,-54.7274"/>
<polygon fill="#000000" stroke="#000000" points="689.0545,-55.8285 689.618,-45.2486 682.5798,-53.1679 689.0545,-55.8285"/>
<text text-anchor="middle" x="680.2903" y="-96.0548" font-family="Times,serif" font-size="14.00" fill="#000000">No</text>
</g>
<!-- rigid_transformation&#45;&gt;local_deformations -->
<g id="edge18" class="edge">
<title>rigid_transformation-&gt;local_deformations</title>
<path fill="none" stroke="#000000" d="M552.737,-244.0099C552.737,-235.9377 552.737,-226.2312 552.737,-217.2366"/>
<polygon fill="#000000" stroke="#000000" points="556.2371,-217.1452 552.737,-207.1452 549.2371,-217.1452 556.2371,-217.1452"/>
</g>
<!-- rigid_transformation&#45;&gt;final_step -->
<!-- elastic_transformation&#45;&gt;final_step -->
<g id="edge21" class="edge">
<title>elastic_transformation-&gt;final_step</title>
<path fill="none" stroke="#000000" d="M573.3102,-82.2504C594.0123,-72.3304 620.0876,-59.8356 643.0134,-48.85"/>
<polygon fill="#000000" stroke="#000000" points="644.7821,-51.8836 652.2877,-44.4059 641.7571,-45.5709 644.7821,-51.8836"/>
</g>
<!-- classic_feature_based&#45;&gt;transformation_type -->
<g id="edge14" class="edge">
<title>classic_feature_based-&gt;transformation_type</title>
<path fill="none" stroke="#000000" d="M465.737,-450.0456C465.737,-431.165 465.737,-401.2756 465.737,-379.2378"/>
<polygon fill="#000000" stroke="#000000" points="469.2371,-379.1326 465.737,-369.1326 462.2371,-379.1327 469.2371,-379.1326"/>
</g>
<!-- pose_estimation_based&#45;&gt;transformation_type -->
<g id="edge16" class="edge">
<title>pose_estimation_based-&gt;transformation_type</title>
<path fill="none" stroke="#000000" d="M629.0037,-450.0456C593.7168,-428.6074 535.068,-392.976 498.5027,-370.7612"/>
<polygon fill="#000000" stroke="#000000" points="500.0736,-367.6203 489.7099,-365.4193 496.439,-373.6028 500.0736,-367.6203"/>
</g>
</g>
</svg>