<?xml version="1.0" encoding="UTF-8" standalone="no"?>
<!DOCTYPE svg PUBLIC "-//W3C//DTD SVG 1.1//EN" "http://www.w3.org/Graphics/SVG/1.1/DTD/svg11.dtd">
<!-- Generated by graphviz version 2.40.1 (20161225.0304)
 -->
<!-- Title: ImageRegistrationGuideline Pages: 1 -->
<svg width="853pt" height="987pt" viewBox="0.00 0.00 852.74 986.51" xmlns="http://www.w3.org/2000/svg" xmlns:xlink="http://www.w3.org/1999/xlink">
<g id="graph0" class="graph" transform="scale(1 1) rotate(0) translate(4 982.5097)">
<title>ImageRegistrationGuideline</title>
<polygon fill="#ffffff" stroke="transparent" points="-4,4 -4,-982.5097 848.7393,-982.5097 848.7393,4 -4,4"/>
<!-- start -->
<g id="node1" class="node">
<title>start</title>
<ellipse fill="#000000" stroke="#000000" cx="217.737" cy="-960.5097" rx="27" ry="18"/>
<text text-anchor="middle" x="217.737" y="-957.5097" font-family="Helvetica,sans-Serif" font-size="10.00" fill="#000000">Start</text>
</g>
<!-- preprocessing_check -->
<g id="node2" class="node">
<title>preprocessing_check</title>
<polygon fill="#add8e6" stroke="#000000" points="217.737,-905.5097 106.3589,-887.5097 217.737,-869.5097 329.1151,-887.5097 217.737,-905.5097"/>
<text text-anchor="middle" x="217.737" y="-884.5097" font-family="Helvetica,sans-Serif" font-size="10.00" fill="#000000">Is preprocessing needed?</text>
</g>
<!-- start&#45;&gt;preprocessing_check -->
<g id="edge1" class="edge">
<title>start-&gt;preprocessing_check</title>
<path fill="none" stroke="#000000" d="M217.737,-942.4647C217.737,-934.3925 217.737,-924.686 217.737,-915.6914"/>
<polygon fill="#000000" stroke="#000000" points="221.2371,-915.6 217.737,-905.6 214.2371,-915.6001 221.2371,-915.6"/>
</g>
<!-- preprocessing_steps -->
<g id="node3" class="node">
<title>preprocessing_steps</title>
<path fill="none" stroke="#000000" d="M234.4332,-816.7097C234.4332,-816.7097 71.0408,-816.7097 71.0408,-816.7097 65.0408,-816.7097 59.0408,-810.7097 59.0408,-804.7097 59.0408,-804.7097 59.0408,-792.7097 59.0408,-792.7097 59.0408,-786.7097 65.0408,-780.7097 71.0408,-780.7097 71.0408,-780.7097 234.4332,-780.7097 234.4332,-780.7097 240.4332,-780.7097 246.4332,-786.7097 246.4332,-792.7097 246.4332,-792.7097 246.4332,-804.7097 246.4332,-804.7097 246.4332,-810.7097 240.4332,-816.7097 234.4332,-816.7097"/>
<text text-anchor="middle" x="152.737" y="-795.7097" font-family="Helvetica,sans-Serif" font-size="10.00" fill="#000000">Correct Intensity, Resize, or Segment..</text>
</g>
<!-- preprocessing_check&#45;&gt;preprocessing_steps -->
<g id="edge2" class="edge">
<title>preprocessing_check-&gt;preprocessing_steps</title>
<path fill="none" stroke="#000000" d="M205.815,-871.2224C196.3787,-858.3309 183.0106,-840.0681 172.0514,-825.096"/>
<polygon fill="#000000" stroke="#000000" points="174.6558,-822.7284 165.925,-816.7265 169.0073,-826.863 174.6558,-822.7284"/>
<text text-anchor="middle" x="202.6199" y="-838.9097" font-family="Times,serif" font-size="14.00" fill="#000000">Yes</text>
</g>
<!-- deep_learning_check -->
<g id="node4" class="node">
<title>deep_learning_check</title>
<polygon fill="#add8e6" stroke="#000000" points="217.737,-743.7097 -.2373,-699.7097 217.737,-655.7097 435.7113,-699.7097 217.737,-743.7097"/>
<text text-anchor="middle" x="217.737" y="-708.7097" font-family="Helvetica,sans-Serif" font-size="10.00" fill="#000000">Do you have the necessary expertise,</text>
<text text-anchor="middle" x="217.737" y="-696.7097" font-family="Helvetica,sans-Serif" font-size="10.00" fill="#000000">computational resources,</text>
<text text-anchor="middle" x="217.737" y="-684.7097" font-family="Helvetica,sans-Serif" font-size="10.00" fill="#000000">and perhaps training data for Deep Learning?</text>
</g>
<!-- preprocessing_check&#45;&gt;deep_learning_check -->
<g id="edge3" class="edge">
<title>preprocessing_check-&gt;deep_learning_check</title>
<path fill="none" stroke="#000000" d="M229.4471,-871.3082C238.6277,-857.5452 250.6691,-836.8682 255.737,-816.7097 261.4718,-793.8984 255.2393,-769.0602 246.275,-748.1609"/>
<polygon fill="#000000" stroke="#000000" points="249.3547,-746.4806 241.9972,-738.8571 242.9948,-749.4049 249.3547,-746.4806"/>
<text text-anchor="middle" x="267.2903" y="-794.5097" font-family="Times,serif" font-size="14.00" fill="#000000">No</text>
</g>
<!-- preprocessing_steps&#45;&gt;deep_learning_check -->
<g id="edge4" class="edge">
<title>preprocessing_steps-&gt;deep_learning_check</title>
<path fill="none" stroke="#000000" d="M164.659,-780.5515C170.8523,-771.1186 178.7393,-759.1061 186.5274,-747.2443"/>
<polygon fill="#000000" stroke="#000000" points="189.5925,-748.953 192.1552,-738.6728 183.741,-745.1111 189.5925,-748.953"/>
</g>
<!-- deep_learning_registration -->
<g id="node5" class="node">
<title>deep_learning_registration</title>
<ellipse fill="#d3d3d3" stroke="#000000" cx="195.737" cy="-570.9097" rx="139.3193" ry="22.7556"/>
<text text-anchor="middle" x="195.737" y="-573.9097" font-family="Helvetica,sans-Serif" font-size="10.00" fill="#000000">Apply Deep Learning-Based Registration</text>
<text text-anchor="middle" x="195.737" y="-561.9097" font-family="Helvetica,sans-Serif" font-size="10.00" fill="#000000">(e.g., VoxelMorph, DeepReg)</text>
</g>
<!-- deep_learning_check&#45;&gt;deep_learning_registration -->
<g id="edge5" class="edge">
<title>deep_learning_check-&gt;deep_learning_registration</title>
<path fill="none" stroke="#000000" d="M210.4113,-656.8211C207.4583,-639.5324 204.1061,-619.9069 201.3519,-603.7821"/>
<polygon fill="#000000" stroke="#000000" points="204.7723,-603.019 199.6385,-593.7511 197.8722,-604.1976 204.7723,-603.019"/>
<text text-anchor="middle" x="217.6199" y="-625.1097" font-family="Times,serif" font-size="14.00" fill="#000000">Yes</text>
</g>
<!-- similarity_check -->
<g id="node6" class="node">
<title>similarity_check</title>
<polygon fill="#add8e6" stroke="#000000" points="495.737,-602.9097 353.5049,-570.9097 495.737,-538.9097 637.9691,-570.9097 495.737,-602.9097"/>
<text text-anchor="middle" x="495.737" y="-573.9097" font-family="Helvetica,sans-Serif" font-size="10.00" fill="#000000">Are the images very similar?</text>
<text text-anchor="middle" x="495.737" y="-561.9097" font-family="Helvetica,sans-Serif" font-size="10.00" fill="#000000">(Minimal transformation)</text>
</g>
<!-- deep_learning_check&#45;&gt;similarity_check -->
<g id="edge6" class="edge">
<title>deep_learning_check-&gt;similarity_check</title>
<path fill="none" stroke="#000000" d="M283.9717,-669.0225C331.5009,-647.0018 394.8376,-617.6573 439.8273,-596.8131"/>
<polygon fill="#000000" stroke="#000000" points="441.5348,-599.8795 449.1369,-592.4999 438.5921,-593.5281 441.5348,-599.8795"/>
<text text-anchor="middle" x="389.2903" y="-625.1097" font-family="Times,serif" font-size="14.00" fill="#000000">No</text>
</g>
<!-- intensity_based -->
<g id="node7" class="node">
<title>intensity_based</title>
<path fill="none" stroke="#000000" d="M316.3205,-486.1097C316.3205,-486.1097 179.1535,-486.1097 179.1535,-486.1097 173.1535,-486.1097 167.1535,-480.1097 167.1535,-474.1097 167.1535,-474.1097 167.1535,-462.1097 167.1535,-462.1097 167.1535,-456.1097 173.1535,-450.1097 179.1535,-450.1097 179.1535,-450.1097 316.3205,-450.1097 316.3205,-450.1097 322.3205,-450.1097 328.3205,-456.1097 328.3205,-462.1097 328.3205,-462.1097 328.3205,-474.1097 328.3205,-474.1097 328.3205,-480.1097 322.3205,-486.1097 316.3205,-486.1097"/>
<text text-anchor="middle" x="247.737" y="-471.1097" font-family="Helvetica,sans-Serif" font-size="10.00" fill="#000000">Use Intensity-Based Registration</text>
<text text-anchor="middle" x="247.737" y="-459.1097" font-family="Helvetica,sans-Serif" font-size="10.00" fill="#000000">(e.g., Cross-Correlation)</text>
</g>
<!-- similarity_check&#45;&gt;intensity_based -->
<g id="edge7" class="edge">
<title>similarity_check-&gt;intensity_based</title>
<path fill="none" stroke="#000000" d="M445.5505,-550.1066C403.4436,-532.6526 343.4828,-507.7979 300.6327,-490.0358"/>
<polygon fill="#000000" stroke="#000000" points="301.7972,-486.7297 291.2191,-486.1337 299.1167,-493.1962 301.7972,-486.7297"/>
<text text-anchor="middle" x="382.6199" y="-508.3097" font-family="Times,serif" font-size="14.00" fill="#000000">Yes</text>
</g>
<!-- mutual_information -->
<g id="node8" class="node">
<title>mutual_information</title>
<path fill="none" stroke="#000000" d="M504.639,-486.1097C504.639,-486.1097 358.835,-486.1097 358.835,-486.1097 352.835,-486.1097 346.835,-480.1097 346.835,-474.1097 346.835,-474.1097 346.835,-462.1097 346.835,-462.1097 346.835,-456.1097 352.835,-450.1097 358.835,-450.1097 358.835,-450.1097 504.639,-450.1097 504.639,-450.1097 510.639,-450.1097 516.639,-456.1097 516.639,-462.1097 516.639,-462.1097 516.639,-474.1097 516.639,-474.1097 516.639,-480.1097 510.639,-486.1097 504.639,-486.1097"/>
<text text-anchor="middle" x="431.737" y="-471.1097" font-family="Helvetica,sans-Serif" font-size="10.00" fill="#000000">Use Histogram-Based Registration</text>
<text text-anchor="middle" x="431.737" y="-459.1097" font-family="Helvetica,sans-Serif" font-size="10.00" fill="#000000">(e.g., Mutual Information)</text>
</g>
<!-- similarity_check&#45;&gt;mutual_information -->
<g id="edge8" class="edge">
<title>similarity_check-&gt;mutual_information</title>
<path fill="none" stroke="#000000" d="M471.7787,-544.1181C465.9137,-536.8681 459.9357,-528.8283 455.0862,-520.9097 450.2704,-513.046 445.9004,-504.0152 442.2777,-495.6717"/>
<polygon fill="#000000" stroke="#000000" points="445.4549,-494.1963 438.3864,-486.3041 438.9904,-496.8817 445.4549,-494.1963"/>
<text text-anchor="middle" x="495.5624" y="-508.3097" font-family="Times,serif" font-size="14.00" fill="#000000">Yes/Somehow</text>
</g>
<!-- feature_based -->
<g id="node9" class="node">
<title>feature_based</title>
<path fill="none" stroke="#000000" d="M666.5451,-486.1097C666.5451,-486.1097 546.9289,-486.1097 546.9289,-486.1097 540.9289,-486.1097 534.9289,-480.1097 534.9289,-474.1097 534.9289,-474.1097 534.9289,-462.1097 534.9289,-462.1097 534.9289,-456.1097 540.9289,-450.1097 546.9289,-450.1097 546.9289,-450.1097 666.5451,-450.1097 666.5451,-450.1097 672.5451,-450.1097 678.5451,-456.1097 678.5451,-462.1097 678.5451,-462.1097 678.5451,-474.1097 678.5451,-474.1097 678.5451,-480.1097 672.5451,-486.1097 666.5451,-486.1097"/>
<text text-anchor="middle" x="606.737" y="-471.1097" font-family="Helvetica,sans-Serif" font-size="10.00" fill="#000000">Use Feature-Based Methods</text>
<text text-anchor="middle" x="606.737" y="-459.1097" font-family="Helvetica,sans-Serif" font-size="10.00" fill="#000000">(e.g., SIFT, ORB, SURF)</text>
</g>
<!-- similarity_check&#45;&gt;feature_based -->
<g id="edge9" class="edge">
<title>similarity_check-&gt;feature_based</title>
<path fill="none" stroke="#000000" d="M523.747,-544.9689C540.9009,-529.0822 562.7422,-508.8544 579.7121,-493.1381"/>
<polygon fill="#000000" stroke="#000000" points="582.1733,-495.6292 587.132,-486.2664 577.4169,-490.4934 582.1733,-495.6292"/>
<text text-anchor="middle" x="618.061" y="-508.3097" font-family="Times,serif" font-size="14.00" fill="#000000">Yes/Somehow/No</text>
</g>
<!-- retake_images -->
<g id="node10" class="node">
<title>retake_images</title>
<ellipse fill="#d3d3d3" stroke="#000000" cx="705.737" cy="-409.4823" rx="139.0047" ry="22.7556"/>
<text text-anchor="middle" x="705.737" y="-412.4823" font-family="Helvetica,sans-Serif" font-size="10.00" fill="#000000">Retake Images with Extrinsic Landmarks</text>
<text text-anchor="middle" x="705.737" y="-400.4823" font-family="Helvetica,sans-Serif" font-size="10.00" fill="#000000">or Improved Features</text>
</g>
<!-- similarity_check&#45;&gt;retake_images -->
<g id="edge10" class="edge">
<title>similarity_check-&gt;retake_images</title>
<path fill="none" stroke="#000000" d="M573.2668,-556.1968C613.9435,-547.1258 658.4435,-534.6258 673.737,-520.9097 695.6319,-501.2731 702.9575,-467.7491 705.2126,-442.5895"/>
<polygon fill="#000000" stroke="#000000" points="708.72,-442.5953 705.8963,-432.3837 701.7356,-442.1274 708.72,-442.5953"/>
<text text-anchor="middle" x="711.7861" y="-508.3097" font-family="Times,serif" font-size="14.00" fill="#000000">Not at all</text>
</g>
<!-- transformation_type -->
<g id="node11" class="node">
<title>transformation_type</title>
<polygon fill="#add8e6" stroke="#000000" points="433.737,-368.8548 315.6655,-350.8548 433.737,-332.8548 551.8085,-350.8548 433.737,-368.8548"/>
<text text-anchor="middle" x="433.737" y="-347.8548" font-family="Helvetica,sans-Serif" font-size="10.00" fill="#000000">Select Transformation Type</text>
</g>
<!-- intensity_based&#45;&gt;transformation_type -->
<g id="edge11" class="edge">
<title>intensity_based-&gt;transformation_type</title>
<path fill="none" stroke="#000000" d="M276.3919,-450.0456C310.3989,-428.6074 366.9206,-392.976 402.1597,-370.7612"/>
<polygon fill="#000000" stroke="#000000" points="404.0407,-373.7129 410.6336,-365.4193 400.3077,-367.7913 404.0407,-373.7129"/>
</g>
<!-- mutual_information&#45;&gt;transformation_type -->
<g id="edge12" class="edge">
<title>mutual_information-&gt;transformation_type</title>
<path fill="none" stroke="#000000" d="M432.0451,-450.0456C432.3672,-431.165 432.877,-401.2756 433.2529,-379.2378"/>
<polygon fill="#000000" stroke="#000000" points="436.7541,-379.1909 433.4252,-369.1326 429.7551,-379.0715 436.7541,-379.1909"/>
</g>
<!-- feature_based&#45;&gt;transformation_type -->
<g id="edge13" class="edge">
<title>feature_based-&gt;transformation_type</title>
<path fill="none" stroke="#000000" d="M580.0849,-450.0456C548.6757,-428.7573 496.6171,-393.4733 463.7973,-371.2289"/>
<polygon fill="#000000" stroke="#000000" points="465.7296,-368.3105 455.4881,-365.5972 461.8023,-374.1049 465.7296,-368.3105"/>
</g>
<!-- final_step -->
<g id="node15" class="node">
<title>final_step</title>
<ellipse fill="#d3d3d3" stroke="#000000" cx="605.737" cy="-22.6274" rx="164.8894" ry="22.7556"/>
<text text-anchor="middle" x="605.737" y="-25.6274" font-family="Helvetica,sans-Serif" font-size="10.00" fill="#000000">Apply Same Transformation to Additional Images</text>
<text text-anchor="middle" x="605.737" y="-13.6274" font-family="Helvetica,sans-Serif" font-size="10.00" fill="#000000">from Source Space</text>
</g>
<!-- retake_images&#45;&gt;final_step -->
<!-- rigid_transformation -->
<g id="node13" class="node">
<title>rigid_transformation</title>
<path fill="none" stroke="#000000" d="M600.289,-280.0548C600.289,-280.0548 323.185,-280.0548 323.185,-280.0548 317.185,-280.0548 311.185,-274.0548 311.185,-268.0548 311.185,-268.0548 311.185,-256.0548 311.185,-256.0548 311.185,-250.0548 317.185,-244.0548 323.185,-244.0548 323.185,-244.0548 600.289,-244.0548 600.289,-244.0548 606.289,-244.0548 612.289,-250.0548 612.289,-256.0548 612.289,-256.0548 612.289,-268.0548 612.289,-268.0548 612.289,-274.0548 606.289,-280.0548 600.289,-280.0548"/>
<text text-anchor="middle" x="461.737" y="-259.0548" font-family="Helvetica,sans-Serif" font-size="10.00" fill="#000000">Calculate and Apply Rigid, Affine, or Perspective Transformation</text>
</g>
<!-- transformation_type&#45;&gt;rigid_transformation -->
<g id="edge14" class="edge">
<title>transformation_type-&gt;rigid_transformation</title>
<path fill="none" stroke="#000000" d="M439.2689,-333.3108C443.1676,-320.9462 448.4698,-304.1308 452.9444,-289.94"/>
<polygon fill="#000000" stroke="#000000" points="456.3551,-290.7617 456.0244,-280.1721 449.6791,-288.6567 456.3551,-290.7617"/>
<text text-anchor="middle" x="509.0249" y="-302.2548" font-family="Times,serif" font-size="14.00" fill="#000000">Global Deformations</text>
</g>
<!-- local_deformations -->
<g id="node12" class="node">
<title>local_deformations</title>
<polygon fill="#add8e6" stroke="#000000" points="461.737,-207.0548 327.9634,-189.0548 461.737,-171.0548 595.5106,-189.0548 461.737,-207.0548"/>
<text text-anchor="middle" x="461.737" y="-186.0548" font-family="Helvetica,sans-Serif" font-size="10.00" fill="#000000">Are local deformations present?</text>
</g>
<!-- elastic_transformation -->
<g id="node14" class="node">
<title>elastic_transformation</title>
<path fill="none" stroke="#000000" d="M535.38,-118.2548C535.38,-118.2548 352.094,-118.2548 352.094,-118.2548 346.094,-118.2548 340.094,-112.2548 340.094,-106.2548 340.094,-106.2548 340.094,-94.2548 340.094,-94.2548 340.094,-88.2548 346.094,-82.2548 352.094,-82.2548 352.094,-82.2548 535.38,-82.2548 535.38,-82.2548 541.38,-82.2548 547.38,-88.2548 547.38,-94.2548 547.38,-94.2548 547.38,-106.2548 547.38,-106.2548 547.38,-112.2548 541.38,-118.2548 535.38,-118.2548"/>
<text text-anchor="middle" x="443.737" y="-103.2548" font-family="Helvetica,sans-Serif" font-size="10.00" fill="#000000">Calculate and Apply Elastic Transformation</text>
<text text-anchor="middle" x="443.737" y="-91.2548" font-family="Helvetica,sans-Serif" font-size="10.00" fill="#000000">(e.g., B-Splines, Thin-Plate Splines)</text>
</g>
<!-- local_deformations&#45;&gt;elastic_transformation -->
<g id="edge16" class="edge">
<title>local_deformations-&gt;elastic_transformation</title>
<path fill="none" stroke="#000000" d="M458.1808,-171.5108C455.6988,-159.2663 452.332,-142.6568 449.4733,-128.5541"/>
<polygon fill="#000000" stroke="#000000" points="452.8264,-127.4774 447.4094,-118.3721 445.9659,-128.8681 452.8264,-127.4774"/>
<text text-anchor="middle" x="464.6199" y="-140.4548" font-family="Times,serif" font-size="14.00" fill="#000000">Yes</text>
</g>
<!-- local_deformations&#45;&gt;final_step -->
<g id="edge17" class="edge">
<title>local_deformations-&gt;final_step</title>
<path fill="none" stroke="#000000" d="M487.6994,-174.2961C508.3999,-161.5322 537.0803,-141.501 556.737,-118.2548 572.6055,-99.4887 585.1183,-74.7121 593.5268,-55.0812"/>
<polygon fill="#000000" stroke="#000000" points="596.8496,-56.2045 597.4335,-45.6257 590.3801,-53.5314 596.8496,-56.2045"/>
<text text-anchor="middle" x="588.2903" y="-96.0548" font-family="Times,serif" font-size="14.00" fill="#000000">No</text>
</g>
<!-- rigid_transformation&#45;&gt;local_deformations -->
<g id="edge15" class="edge">
<title>rigid_transformation-&gt;local_deformations</title>
<path fill="none" stroke="#000000" d="M461.737,-244.0099C461.737,-235.9377 461.737,-226.2312 461.737,-217.2366"/>
<polygon fill="#000000" stroke="#000000" points="465.2371,-217.1452 461.737,-207.1452 458.2371,-217.1452 465.2371,-217.1452"/>
</g>
<!-- rigid_transformation&#45;&gt;final_step -->
<!-- elastic_transformation&#45;&gt;final_step -->
<g id="edge18" class="edge">
<title>elastic_transformation-&gt;final_step</title>
<path fill="none" stroke="#000000" d="M481.3102,-82.2504C502.0123,-72.3304 528.0876,-59.8356 551.0134,-48.85"/>
<polygon fill="#000000" stroke="#000000" points="552.7821,-51.8836 560.2877,-44.4059 549.7571,-45.5709 552.7821,-51.8836"/>
</g>
</g>
</svg>