<?xml version="1.0" encoding="UTF-8" standalone="no"?>
<!DOCTYPE svg PUBLIC "-//W3C//DTD SVG 1.1//EN" "http://www.w3.org/Graphics/SVG/1.1/DTD/svg11.dtd">
<!-- Generated by graphviz version 2.40.1 (20161225.0304)
 -->
<!-- Title: ImageRegistrationGuideline Pages: 1 -->
<svg width="529pt" height="698pt" viewBox="0.00 0.00 528.97 698.00" xmlns="http://www.w3.org/2000/svg" xmlns:xlink="http://www.w3.org/1999/xlink">
<g id="graph0" class="graph" transform="scale(.8292 .8292) rotate(0) translate(4 837.7292)">
<title>ImageRegistrationGuideline</title>
<polygon fill="#ffffff" stroke="transparent" points="-4,4 -4,-837.7292 633.8899,-837.7292 633.8899,4 -4,4"/>
<!-- start -->
<g id="node1" class="node">
<title>start</title>
<ellipse fill="#000000" stroke="#000000" cx="248.3498" cy="-815.7292" rx="27" ry="18"/>
<text text-anchor="middle" x="248.3498" y="-812.1292" font-family="Helvetica,sans-Serif" font-size="12.00" fill="#000000">Start</text>
</g>
<!-- preprocessing_check -->
<g id="node2" class="node">
<title>preprocessing_check</title>
<polygon fill="#add8e6" stroke="#000000" points="325.3978,-780.7292 171.3018,-780.7292 171.3018,-744.7292 325.3978,-744.7292 325.3978,-780.7292"/>
<text text-anchor="middle" x="248.3498" y="-759.1292" font-family="Helvetica,sans-Serif" font-size="12.00" fill="#000000">Is preprocessing needed?</text>
</g>
<!-- start&#45;&gt;preprocessing_check -->
<g id="edge1" class="edge">
<title>start-&gt;preprocessing_check</title>
<path fill="none" stroke="#000000" d="M248.3498,-797.4896C248.3498,-795.3842 248.3498,-793.2015 248.3498,-791.0025"/>
<polygon fill="#000000" stroke="#000000" points="251.8499,-790.8228 248.3498,-780.8228 244.8499,-790.8229 251.8499,-790.8228"/>
</g>
<!-- preprocessing_steps -->
<g id="node3" class="node">
<title>preprocessing_steps</title>
<path fill="none" stroke="#000000" d="M254.385,-711.9292C254.385,-711.9292 56.3146,-711.9292 56.3146,-711.9292 50.3146,-711.9292 44.3146,-705.9292 44.3146,-699.9292 44.3146,-699.9292 44.3146,-687.9292 44.3146,-687.9292 44.3146,-681.9292 50.3146,-675.9292 56.3146,-675.9292 56.3146,-675.9292 254.385,-675.9292 254.385,-675.9292 260.385,-675.9292 266.385,-681.9292 266.385,-687.9292 266.385,-687.9292 266.385,-699.9292 266.385,-699.9292 266.385,-705.9292 260.385,-711.9292 254.385,-711.9292"/>
<text text-anchor="middle" x="155.3498" y="-690.3292" font-family="Helvetica,sans-Serif" font-size="12.00" fill="#000000">Correct Intensity, Resize, or Segment..</text>
</g>
<!-- preprocessing_check&#45;&gt;preprocessing_steps -->
<g id="edge2" class="edge">
<title>preprocessing_check-&gt;preprocessing_steps</title>
<path fill="none" stroke="#000000" d="M223.9151,-744.6528C213.0021,-736.5795 199.9782,-726.9446 188.2273,-718.2514"/>
<polygon fill="#000000" stroke="#000000" points="190.065,-715.2573 179.9442,-712.1237 185.9018,-720.8848 190.065,-715.2573"/>
<text text-anchor="middle" x="223.2327" y="-724.1292" font-family="Times,serif" font-size="14.00" fill="#000000">Yes</text>
</g>
<!-- deep_learning_check -->
<g id="node4" class="node">
<title>deep_learning_check</title>
<polygon fill="#add8e6" stroke="#000000" points="328.4342,-659.0296 70.2654,-659.0296 70.2654,-607.6288 328.4342,-607.6288 328.4342,-659.0296"/>
<text text-anchor="middle" x="199.3498" y="-644.1292" font-family="Helvetica,sans-Serif" font-size="12.00" fill="#000000">Do you have the necessary expertise,</text>
<text text-anchor="middle" x="199.3498" y="-629.7292" font-family="Helvetica,sans-Serif" font-size="12.00" fill="#000000">computational resources,</text>
<text text-anchor="middle" x="199.3498" y="-615.3292" font-family="Helvetica,sans-Serif" font-size="12.00" fill="#000000">and perhaps training data for Deep Learning?</text>
</g>
<!-- preprocessing_check&#45;&gt;deep_learning_check -->
<g id="edge3" class="edge">
<title>preprocessing_check-&gt;deep_learning_check</title>
<path fill="none" stroke="#000000" d="M260.122,-744.3882C270.2625,-726.0542 281.5042,-697.5542 269.3498,-675.9292 267.3676,-672.4024 264.962,-669.1336 262.2515,-666.1088"/>
<polygon fill="#000000" stroke="#000000" points="264.5858,-663.4977 254.9536,-659.0849 259.7316,-668.5412 264.5858,-663.4977"/>
<text text-anchor="middle" x="282.9031" y="-689.7292" font-family="Times,serif" font-size="14.00" fill="#000000">No</text>
</g>
<!-- preprocessing_steps&#45;&gt;deep_learning_check -->
<g id="edge4" class="edge">
<title>preprocessing_steps-&gt;deep_learning_check</title>
<path fill="none" stroke="#000000" d="M168.5513,-675.7472C170.4244,-673.1673 172.3995,-670.4471 174.4079,-667.681"/>
<polygon fill="#000000" stroke="#000000" points="177.4212,-669.4879 180.4644,-659.3395 171.7568,-665.3751 177.4212,-669.4879"/>
</g>
<!-- deep_learning_registration -->
<g id="node5" class="node">
<title>deep_learning_registration</title>
<ellipse fill="#d3d3d3" stroke="#000000" cx="165.3498" cy="-548.9076" rx="165.0577" ry="26.0431"/>
<text text-anchor="middle" x="165.3498" y="-552.5076" font-family="Helvetica,sans-Serif" font-size="12.00" fill="#000000">Apply Deep Learning-Based Registration</text>
<text text-anchor="middle" x="165.3498" y="-538.1076" font-family="Helvetica,sans-Serif" font-size="12.00" fill="#000000">(e.g., VoxelMorph, DeepReg)</text>
</g>
<!-- deep_learning_check&#45;&gt;deep_learning_registration -->
<g id="edge5" class="edge">
<title>deep_learning_check-&gt;deep_learning_registration</title>
<path fill="none" stroke="#000000" d="M188.9639,-607.5412C186.0529,-600.3132 182.8353,-592.324 179.7365,-584.6296"/>
<polygon fill="#000000" stroke="#000000" points="182.8892,-583.0887 175.9067,-575.1203 176.396,-585.7038 182.8892,-583.0887"/>
<text text-anchor="middle" x="196.2327" y="-587.1292" font-family="Times,serif" font-size="14.00" fill="#000000">Yes</text>
</g>
<!-- similarity_check -->
<g id="node6" class="node">
<title>similarity_check</title>
<polygon fill="#add8e6" stroke="#000000" points="505.1893,-567.2082 337.5103,-567.2082 337.5103,-530.6071 505.1893,-530.6071 505.1893,-567.2082"/>
<text text-anchor="middle" x="421.3498" y="-552.5076" font-family="Helvetica,sans-Serif" font-size="12.00" fill="#000000">Are the images very similar?</text>
<text text-anchor="middle" x="421.3498" y="-538.1076" font-family="Helvetica,sans-Serif" font-size="12.00" fill="#000000">(Minimal transformation)</text>
</g>
<!-- deep_learning_check&#45;&gt;similarity_check -->
<g id="edge6" class="edge">
<title>deep_learning_check-&gt;similarity_check</title>
<path fill="none" stroke="#000000" d="M266.8613,-607.6561C297.8254,-595.8812 334.1524,-582.0668 363.7981,-570.7933"/>
<polygon fill="#000000" stroke="#000000" points="365.0703,-574.054 373.1732,-567.2281 362.5822,-567.5112 365.0703,-574.054"/>
<text text-anchor="middle" x="337.9031" y="-587.1292" font-family="Times,serif" font-size="14.00" fill="#000000">No</text>
</g>
<!-- intensity_based -->
<g id="node7" class="node">
<title>intensity_based</title>
<path fill="none" stroke="#000000" d="M178.5496,-445.9867C178.5496,-445.9867 12.15,-445.9867 12.15,-445.9867 6.15,-445.9867 .15,-439.9867 .15,-433.9867 .15,-433.9867 .15,-421.3856 .15,-421.3856 .15,-415.3856 6.15,-409.3856 12.15,-409.3856 12.15,-409.3856 178.5496,-409.3856 178.5496,-409.3856 184.5496,-409.3856 190.5496,-415.3856 190.5496,-421.3856 190.5496,-421.3856 190.5496,-433.9867 190.5496,-433.9867 190.5496,-439.9867 184.5496,-445.9867 178.5496,-445.9867"/>
<text text-anchor="middle" x="95.3498" y="-431.2861" font-family="Helvetica,sans-Serif" font-size="12.00" fill="#000000">Use Intensity-Based Registration</text>
<text text-anchor="middle" x="95.3498" y="-416.8861" font-family="Helvetica,sans-Serif" font-size="12.00" fill="#000000">(e.g., Cross-Correlation)</text>
</g>
<!-- similarity_check&#45;&gt;intensity_based -->
<g id="edge7" class="edge">
<title>similarity_check-&gt;intensity_based</title>
<path fill="none" stroke="#000000" d="M360.3566,-530.5878C351.3156,-527.9549 342.0996,-525.3166 333.3498,-522.8861 319.7368,-519.1047 315.9667,-519.4154 302.584,-514.8861 247.0157,-496.0793 185.2672,-469.3 143.7476,-450.3912"/>
<polygon fill="#000000" stroke="#000000" points="144.9752,-447.1039 134.4259,-446.1233 142.0612,-453.4686 144.9752,-447.1039"/>
<text text-anchor="middle" x="313.2327" y="-502.2861" font-family="Times,serif" font-size="14.00" fill="#000000">Yes</text>
</g>
<!-- mutual_information -->
<g id="node8" class="node">
<title>mutual_information</title>
<path fill="none" stroke="#000000" d="M384.5325,-445.9867C384.5325,-445.9867 208.1671,-445.9867 208.1671,-445.9867 202.1671,-445.9867 196.1671,-439.9867 196.1671,-433.9867 196.1671,-433.9867 196.1671,-421.3856 196.1671,-421.3856 196.1671,-415.3856 202.1671,-409.3856 208.1671,-409.3856 208.1671,-409.3856 384.5325,-409.3856 384.5325,-409.3856 390.5325,-409.3856 396.5325,-415.3856 396.5325,-421.3856 396.5325,-421.3856 396.5325,-433.9867 396.5325,-433.9867 396.5325,-439.9867 390.5325,-445.9867 384.5325,-445.9867"/>
<text text-anchor="middle" x="296.3498" y="-431.2861" font-family="Helvetica,sans-Serif" font-size="12.00" fill="#000000">Use Histogram-Based Registration</text>
<text text-anchor="middle" x="296.3498" y="-416.8861" font-family="Helvetica,sans-Serif" font-size="12.00" fill="#000000">(e.g., Mutual Information)</text>
</g>
<!-- similarity_check&#45;&gt;mutual_information -->
<g id="edge8" class="edge">
<title>similarity_check-&gt;mutual_information</title>
<path fill="none" stroke="#000000" d="M361.2714,-530.3975C353.0843,-526.1688 345.256,-521.051 338.699,-514.8861 321.6538,-498.86 310.6327,-474.5256 304.1195,-455.6319"/>
<polygon fill="#000000" stroke="#000000" points="307.4316,-454.4986 301.0358,-446.0521 300.7683,-456.6435 307.4316,-454.4986"/>
<text text-anchor="middle" x="379.1752" y="-502.2861" font-family="Times,serif" font-size="14.00" fill="#000000">Yes/Somehow</text>
</g>
<!-- feature_based -->
<g id="node9" class="node">
<title>feature_based</title>
<path fill="none" stroke="#000000" d="M494.2198,-490.0861C494.2198,-490.0861 348.4798,-490.0861 348.4798,-490.0861 342.4798,-490.0861 336.4798,-484.0861 336.4798,-478.0861 336.4798,-478.0861 336.4798,-466.0861 336.4798,-466.0861 336.4798,-460.0861 342.4798,-454.0861 348.4798,-454.0861 348.4798,-454.0861 494.2198,-454.0861 494.2198,-454.0861 500.2198,-454.0861 506.2198,-460.0861 506.2198,-466.0861 506.2198,-466.0861 506.2198,-478.0861 506.2198,-478.0861 506.2198,-484.0861 500.2198,-490.0861 494.2198,-490.0861"/>
<text text-anchor="middle" x="421.3498" y="-468.4861" font-family="Helvetica,sans-Serif" font-size="12.00" fill="#000000">Use Feature-Based Methods</text>
</g>
<!-- similarity_check&#45;&gt;feature_based -->
<g id="edge9" class="edge">
<title>similarity_check-&gt;feature_based</title>
<path fill="none" stroke="#000000" d="M421.3498,-530.3113C421.3498,-521.3761 421.3498,-510.471 421.3498,-500.5244"/>
<polygon fill="#000000" stroke="#000000" points="424.8499,-500.2461 421.3498,-490.2461 417.8499,-500.2462 424.8499,-500.2461"/>
<text text-anchor="middle" x="472.6738" y="-502.2861" font-family="Times,serif" font-size="14.00" fill="#000000">Yes/Somehow/No</text>
</g>
<!-- retake_images -->
<g id="node10" class="node">
<title>retake_images</title>
<ellipse fill="#d3d3d3" stroke="#000000" cx="465.3498" cy="-330.4646" rx="164.5802" ry="26.0431"/>
<text text-anchor="middle" x="465.3498" y="-334.0646" font-family="Helvetica,sans-Serif" font-size="12.00" fill="#000000">Retake Images with Extrinsic Landmarks</text>
<text text-anchor="middle" x="465.3498" y="-319.6646" font-family="Helvetica,sans-Serif" font-size="12.00" fill="#000000">or Improved Features</text>
</g>
<!-- similarity_check&#45;&gt;retake_images -->
<g id="edge10" class="edge">
<title>similarity_check-&gt;retake_images</title>
<path fill="none" stroke="#000000" d="M496.5244,-530.5604C506.7128,-526.325 516.6425,-521.1621 525.3498,-514.8861 556.2278,-492.6302 562.4254,-481.5105 576.3498,-446.0861 589.642,-412.2701 603.1289,-393.5701 581.3498,-364.4861 579.0933,-361.4728 575.1912,-358.6359 570.149,-355.9851"/>
<polygon fill="#000000" stroke="#000000" points="571.2302,-352.6328 560.6763,-351.7016 568.3459,-359.011 571.2302,-352.6328"/>
<text text-anchor="middle" x="598.3989" y="-467.8861" font-family="Times,serif" font-size="14.00" fill="#000000">Not at all</text>
</g>
<!-- transformation_type -->
<g id="node11" class="node">
<title>transformation_type</title>
<polygon fill="#add8e6" stroke="#000000" points="333.2066,-296.4431 169.493,-296.4431 169.493,-260.4431 333.2066,-260.4431 333.2066,-296.4431"/>
<text text-anchor="middle" x="251.3498" y="-274.8431" font-family="Helvetica,sans-Serif" font-size="12.00" fill="#000000">Select Transformation Type</text>
</g>
<!-- intensity_based&#45;&gt;transformation_type -->
<g id="edge11" class="edge">
<title>intensity_based-&gt;transformation_type</title>
<path fill="none" stroke="#000000" d="M98.7373,-409.2046C104.689,-382.1043 119.6383,-331.84 152.3498,-304.4431 154.1953,-302.8974 156.7591,-301.3876 159.8685,-299.9235"/>
<polygon fill="#000000" stroke="#000000" points="161.2748,-303.1306 169.2547,-296.1613 158.6704,-296.6331 161.2748,-303.1306"/>
</g>
<!-- mutual_information&#45;&gt;transformation_type -->
<g id="edge12" class="edge">
<title>mutual_information-&gt;transformation_type</title>
<path fill="none" stroke="#000000" d="M195.9419,-409.4605C173.3571,-405.248 155.7972,-401.8251 155.3498,-401.2861 127.3403,-367.5456 173.2318,-327.3112 210.7047,-302.3157"/>
<polygon fill="#000000" stroke="#000000" points="213.0231,-304.9841 219.5124,-296.6092 209.2168,-299.1093 213.0231,-304.9841"/>
</g>
<!-- classic_feature_based -->
<g id="node16" class="node">
<title>classic_feature_based</title>
<path fill="none" stroke="#000000" d="M332.5452,-401.1867C332.5452,-401.1867 170.1544,-401.1867 170.1544,-401.1867 164.1544,-401.1867 158.1544,-395.1867 158.1544,-389.1867 158.1544,-389.1867 158.1544,-376.5856 158.1544,-376.5856 158.1544,-370.5856 164.1544,-364.5856 170.1544,-364.5856 170.1544,-364.5856 332.5452,-364.5856 332.5452,-364.5856 338.5452,-364.5856 344.5452,-370.5856 344.5452,-376.5856 344.5452,-376.5856 344.5452,-389.1867 344.5452,-389.1867 344.5452,-395.1867 338.5452,-401.1867 332.5452,-401.1867"/>
<text text-anchor="middle" x="251.3498" y="-386.4861" font-family="Helvetica,sans-Serif" font-size="12.00" fill="#000000">Classic Feature-Based Methods</text>
<text text-anchor="middle" x="251.3498" y="-372.0861" font-family="Helvetica,sans-Serif" font-size="12.00" fill="#000000">(e.g., SIFT, ORB, SURF)</text>
</g>
<!-- feature_based&#45;&gt;classic_feature_based -->
<g id="edge13" class="edge">
<title>feature_based-&gt;classic_feature_based</title>
<path fill="none" stroke="#000000" d="M411.9304,-454.0789C410.6868,-451.4302 409.4854,-448.7101 408.4472,-446.0861 402.1621,-430.2013 410.1944,-420.5488 397.3498,-409.2861 390.6744,-403.4328 370.0491,-403.0609 354.727,-401.8105"/>
<polygon fill="#000000" stroke="#000000" points="355.1201,-398.3327 344.7826,-400.6539 354.3113,-405.2859 355.1201,-398.3327"/>
<text text-anchor="middle" x="451.3011" y="-423.4861" font-family="Times,serif" font-size="14.00" fill="#000000">Image Features</text>
</g>
<!-- pose_estimation_based -->
<g id="node17" class="node">
<title>pose_estimation_based</title>
<path fill="none" stroke="#000000" d="M566.564,-401.1867C566.564,-401.1867 364.1356,-401.1867 364.1356,-401.1867 358.1356,-401.1867 352.1356,-395.1867 352.1356,-389.1867 352.1356,-389.1867 352.1356,-376.5856 352.1356,-376.5856 352.1356,-370.5856 358.1356,-364.5856 364.1356,-364.5856 364.1356,-364.5856 566.564,-364.5856 566.564,-364.5856 572.564,-364.5856 578.564,-370.5856 578.564,-376.5856 578.564,-376.5856 578.564,-389.1867 578.564,-389.1867 578.564,-395.1867 572.564,-401.1867 566.564,-401.1867"/>
<text text-anchor="middle" x="465.3498" y="-386.4861" font-family="Helvetica,sans-Serif" font-size="12.00" fill="#000000">Model-Based Feature Detection</text>
<text text-anchor="middle" x="465.3498" y="-372.0861" font-family="Helvetica,sans-Serif" font-size="12.00" fill="#000000">(e.g., Pose Estimation via DeepLabCut)</text>
</g>
<!-- feature_based&#45;&gt;pose_estimation_based -->
<g id="edge15" class="edge">
<title>feature_based-&gt;pose_estimation_based</title>
<path fill="none" stroke="#000000" d="M484.1605,-454.0699C489.3594,-451.5482 493.3816,-448.8638 495.3498,-446.0861 503.4021,-434.722 502.626,-426.8339 495.0065,-410.7262"/>
<polygon fill="#000000" stroke="#000000" points="497.9989,-408.8835 490.4086,-401.4917 491.7326,-412.0035 497.9989,-408.8835"/>
<text text-anchor="middle" x="538.4799" y="-423.4861" font-family="Times,serif" font-size="14.00" fill="#000000">Model Based</text>
</g>
<!-- final_step -->
<g id="node15" class="node">
<title>final_step</title>
<ellipse fill="#d3d3d3" stroke="#000000" cx="365.3498" cy="-26.0215" rx="195.8419" ry="26.0431"/>
<text text-anchor="middle" x="365.3498" y="-29.6215" font-family="Helvetica,sans-Serif" font-size="12.00" fill="#000000">Apply Same Transformation to Additional Images</text>
<text text-anchor="middle" x="365.3498" y="-15.2215" font-family="Helvetica,sans-Serif" font-size="12.00" fill="#000000">from Source Space</text>
</g>
<!-- retake_images&#45;&gt;final_step -->
<!-- rigid_transformation -->
<g id="node13" class="node">
<title>rigid_transformation</title>
<path fill="none" stroke="#000000" d="M426.4122,-227.6431C426.4122,-227.6431 92.2874,-227.6431 92.2874,-227.6431 86.2874,-227.6431 80.2874,-221.6431 80.2874,-215.6431 80.2874,-215.6431 80.2874,-203.6431 80.2874,-203.6431 80.2874,-197.6431 86.2874,-191.6431 92.2874,-191.6431 92.2874,-191.6431 426.4122,-191.6431 426.4122,-191.6431 432.4122,-191.6431 438.4122,-197.6431 438.4122,-203.6431 438.4122,-203.6431 438.4122,-215.6431 438.4122,-215.6431 438.4122,-221.6431 432.4122,-227.6431 426.4122,-227.6431"/>
<text text-anchor="middle" x="259.3498" y="-206.0431" font-family="Helvetica,sans-Serif" font-size="12.00" fill="#000000">Calculate and Apply Rigid, Affine, or Perspective Transformation</text>
</g>
<!-- transformation_type&#45;&gt;rigid_transformation -->
<g id="edge17" class="edge">
<title>transformation_type-&gt;rigid_transformation</title>
<path fill="none" stroke="#000000" d="M253.4517,-260.3667C254.2538,-253.4691 255.1883,-245.4316 256.0739,-237.8155"/>
<polygon fill="#000000" stroke="#000000" points="259.5556,-238.175 257.2342,-227.8376 252.6025,-237.3664 259.5556,-238.175"/>
<text text-anchor="middle" x="314.6377" y="-239.8431" font-family="Times,serif" font-size="14.00" fill="#000000">Global Deformations</text>
</g>
<!-- local_deformations -->
<g id="node12" class="node">
<title>local_deformations</title>
<polygon fill="#add8e6" stroke="#000000" points="352.2206,-174.6431 166.479,-174.6431 166.479,-138.6431 352.2206,-138.6431 352.2206,-174.6431"/>
<text text-anchor="middle" x="259.3498" y="-153.0431" font-family="Helvetica,sans-Serif" font-size="12.00" fill="#000000">Are local deformations present?</text>
</g>
<!-- elastic_transformation -->
<g id="node14" class="node">
<title>elastic_transformation</title>
<path fill="none" stroke="#000000" d="M325.2217,-105.7436C325.2217,-105.7436 103.4779,-105.7436 103.4779,-105.7436 97.4779,-105.7436 91.4779,-99.7436 91.4779,-93.7436 91.4779,-93.7436 91.4779,-81.1425 91.4779,-81.1425 91.4779,-75.1425 97.4779,-69.1425 103.4779,-69.1425 103.4779,-69.1425 325.2217,-69.1425 325.2217,-69.1425 331.2217,-69.1425 337.2217,-75.1425 337.2217,-81.1425 337.2217,-81.1425 337.2217,-93.7436 337.2217,-93.7436 337.2217,-99.7436 331.2217,-105.7436 325.2217,-105.7436"/>
<text text-anchor="middle" x="214.3498" y="-91.0431" font-family="Helvetica,sans-Serif" font-size="12.00" fill="#000000">Calculate and Apply Elastic Transformation</text>
<text text-anchor="middle" x="214.3498" y="-76.6431" font-family="Helvetica,sans-Serif" font-size="12.00" fill="#000000">(e.g., B-Splines, Thin-Plate Splines)</text>
</g>
<!-- local_deformations&#45;&gt;elastic_transformation -->
<g id="edge19" class="edge">
<title>local_deformations-&gt;elastic_transformation</title>
<path fill="none" stroke="#000000" d="M247.5266,-138.4616C242.8344,-131.2461 237.3358,-122.7904 232.1795,-114.8612"/>
<polygon fill="#000000" stroke="#000000" points="234.9503,-112.7019 226.5645,-106.2266 229.082,-116.518 234.9503,-112.7019"/>
<text text-anchor="middle" x="252.2327" y="-118.0431" font-family="Times,serif" font-size="14.00" fill="#000000">Yes</text>
</g>
<!-- local_deformations&#45;&gt;final_step -->
<g id="edge20" class="edge">
<title>local_deformations-&gt;final_step</title>
<path fill="none" stroke="#000000" d="M299.9548,-138.6392C314.46,-130.4586 329.8052,-119.5117 340.3498,-105.8431 345.8367,-98.7305 351.8591,-79.8498 356.618,-62.2367"/>
<polygon fill="#000000" stroke="#000000" points="360.1218,-62.6711 359.2603,-52.1114 353.3486,-60.9035 360.1218,-62.6711"/>
<text text-anchor="middle" x="362.9031" y="-83.2431" font-family="Times,serif" font-size="14.00" fill="#000000">No</text>
</g>
<!-- rigid_transformation&#45;&gt;local_deformations -->
<g id="edge18" class="edge">
<title>rigid_transformation-&gt;local_deformations</title>
<path fill="none" stroke="#000000" d="M259.3498,-191.4035C259.3498,-189.2981 259.3498,-187.1154 259.3498,-184.9163"/>
<polygon fill="#000000" stroke="#000000" points="262.8499,-184.7367 259.3498,-174.7367 255.8499,-184.7368 262.8499,-184.7367"/>
</g>
<!-- rigid_transformation&#45;&gt;final_step -->
<!-- elastic_transformation&#45;&gt;final_step -->
<g id="edge21" class="edge">
<title>elastic_transformation-&gt;final_step</title>
<path fill="none" stroke="#000000" d="M259.6548,-69.0146C270.7593,-64.4976 282.9073,-59.5563 294.8855,-54.684"/>
<polygon fill="#000000" stroke="#000000" points="296.4879,-57.8107 304.4321,-50.8007 293.8504,-51.3266 296.4879,-57.8107"/>
</g>
<!-- classic_feature_based&#45;&gt;transformation_type -->
<g id="edge14" class="edge">
<title>classic_feature_based-&gt;transformation_type</title>
<path fill="none" stroke="#000000" d="M251.3498,-364.2138C251.3498,-348.224 251.3498,-324.9569 251.3498,-306.6892"/>
<polygon fill="#000000" stroke="#000000" points="254.8499,-306.6039 251.3498,-296.604 247.8499,-306.604 254.8499,-306.6039"/>
</g>
<!-- pose_estimation_based&#45;&gt;transformation_type -->
<g id="edge16" class="edge">
<title>pose_estimation_based-&gt;transformation_type</title>
<path fill="none" stroke="#000000" d="M352.0266,-365.0636C350.7945,-364.8701 349.5686,-364.6775 348.3498,-364.4861 325.6838,-360.9261 316.3263,-369.3823 297.3498,-356.4861 279.734,-344.5147 267.8832,-323.3699 260.6275,-306.1069"/>
<polygon fill="#000000" stroke="#000000" points="263.7714,-304.5353 256.8776,-296.4901 257.2497,-307.0784 263.7714,-304.5353"/>
</g>
</g>
</svg>